<?xml version="1.0" encoding="UTF-8" standalone="no"?>
<!-- Created with Inkscape (http://www.inkscape.org/) -->

<svg
   xmlns:dc="http://purl.org/dc/elements/1.1/"
   xmlns:cc="http://creativecommons.org/ns#"
   xmlns:rdf="http://www.w3.org/1999/02/22-rdf-syntax-ns#"
   xmlns:svg="http://www.w3.org/2000/svg"
   xmlns="http://www.w3.org/2000/svg"
   xmlns:sodipodi="http://sodipodi.sourceforge.net/DTD/sodipodi-0.dtd"
   xmlns:inkscape="http://www.inkscape.org/namespaces/inkscape"
   width="133.84666mm"
   height="36.197777mm"
   viewBox="0 0 474.25981 128.25984"
   id="svg2"
   version="1.1"
   inkscape:version="0.91 r13725"
   sodipodi:docname="spoonie living.svg">
  <defs
     id="defs4" />
  <sodipodi:namedview
     id="base"
     pagecolor="#ffffff"
     bordercolor="#666666"
     borderopacity="1.0"
     inkscape:pageopacity="0.0"
     inkscape:pageshadow="2"
     inkscape:zoom="1.4"
     inkscape:cx="221.43595"
     inkscape:cy="86.658362"
     inkscape:document-units="px"
     inkscape:current-layer="layer1"
     showgrid="false"
     fit-margin-top="3"
     fit-margin-left="3"
     fit-margin-right="3"
     fit-margin-bottom="3"
     inkscape:window-width="1366"
     inkscape:window-height="704"
     inkscape:window-x="0"
     inkscape:window-y="27"
     inkscape:window-maximized="1" />
  <metadata
     id="metadata7">
    <rdf:RDF>
      <cc:Work
         rdf:about="">
        <dc:format>image/svg+xml</dc:format>
        <dc:type
           rdf:resource="http://purl.org/dc/dcmitype/StillImage" />
        <dc:title></dc:title>
      </cc:Work>
    </rdf:RDF>
  </metadata>
  <g
     inkscape:label="Layer 1"
     inkscape:groupmode="layer"
     id="layer1"
     transform="translate(-70.864898,-595.35018)">
    <path
       style="fill:#000000"
       d="m 145.2889,705.22128 c -1.45805,-2.35918 -2.39894,-27.9116 -1.59849,-43.41125 0.87052,-16.85632 1.31817,-18.13854 7.18034,-20.56673 4.62658,-1.91639 6.30375,-0.68387 5.65466,4.15546 l -0.54946,4.09655 2.44809,-3.60269 c 2.89394,-4.25882 6.67537,-5.53879 10.32309,-3.49425 3.70617,2.07732 5.43898,6.36561 5.88864,14.57299 0.84802,15.4788 -6.20013,26.44862 -15.98777,24.88351 l -4.13703,-0.66154 0.59105,10.43707 c 0.51805,9.14802 0.37442,10.63311 -1.1629,12.02436 -2.42033,2.19038 -7.67638,3.14222 -8.65022,1.56652 z m 17.46189,-33.45547 c 2.05894,-4.26238 1.96102,-16.03318 -0.15095,-18.14515 -2.06997,-2.06997 -4.53323,-1.14309 -5.7972,2.18138 -1.29978,3.4187 -2.42888,15.86783 -1.62837,17.95394 1.06553,2.77672 5.88546,1.51064 7.57652,-1.99017 z m 331.34976,33.85008 c -3.16655,-0.68627 -7.28413,-5.98355 -7.28413,-9.37104 0,-4.20626 3.59992,-7.62687 11.5,-10.92719 3.85,-1.60837 7.1455,-3.628 7.32332,-4.48808 0.39923,-1.93087 0.11999,-1.93651 -3.45901,-0.0699 -4.25059,2.21684 -7.82077,1.83441 -11.45968,-1.22754 -2.1965,-1.84823 -3.3843,-2.32728 -3.66708,-1.47896 -0.54807,1.64422 -5.57048,4.21267 -8.23755,4.21267 -3.49182,0 -7.64508,-2.72893 -8.95078,-5.88118 -0.79474,-1.91867 -1.11115,-6.64151 -0.89086,-13.29716 0.28664,-8.65998 0.10016,-10.32166 -1.15836,-10.32166 -2.69841,0 -5.09192,6.91425 -5.71322,16.50402 -0.52646,8.12599 -0.85183,9.29529 -3.07265,11.04219 -2.71719,2.13734 -7.82265,2.62822 -8.4286,0.81039 -0.28595,-0.85786 -0.91465,-0.85786 -2.51759,0 -4.79899,2.56834 -10.3804,0.53351 -12.85802,-4.68767 -1.4025,-2.95556 -1.59374,-5.56632 -1.13581,-15.5056 0.59463,-12.9062 1.59783,-15.56177 7.04685,-18.65382 2.34468,-1.33048 2.79568,-1.32144 4.20137,0.0842 1.33754,1.33754 1.41793,2.54112 0.53376,7.99049 -1.55564,9.58768 -1.34687,20.1572 0.44391,22.47462 2.77121,3.58619 4.1305,-0.27234 4.85923,-13.79362 0.64647,-11.99498 0.72727,-12.32584 3.66668,-15.01525 1.93225,-1.7679 4.11783,-2.75 6.11992,-2.75 3.10702,0 3.11307,0.0107 2.59862,4.5749 l -0.51566,4.57489 2.13561,-3.03817 c 2.80715,-3.99355 7.64088,-6.57809 10.81344,-5.78183 4.12042,1.03416 4.91853,4.46017 4.19443,18.00509 -0.57228,10.70481 -0.44685,12.35834 1.03045,13.58439 2.72827,2.26426 3.82885,-0.0417 4.10304,-8.59679 0.36218,-11.30026 3.78987,-18.32497 10.69458,-21.91749 3.49094,-1.81633 6.81484,-1.78308 9.49616,0.095 1.92181,1.34608 2.45408,1.32058 5.1882,-0.24859 2.80109,-1.6076 3.17653,-1.61873 4.65721,-0.13805 1.3774,1.3774 1.45473,2.45316 0.5343,7.43225 -1.19417,6.45985 -1.45067,22.31502 -0.40508,25.03977 0.56775,1.47953 1.17699,1.14638 3.9553,-2.16291 2.38859,-2.84508 3.58417,-3.61185 4.38423,-2.81178 1.72448,1.72447 0.0715,6.24051 -3.64422,9.95623 -3.11898,3.11897 -3.36644,3.83582 -3.36644,9.75188 0,7.32794 -2.50235,12.17949 -7.53733,14.61335 -3.07195,1.48494 -11.31591,2.25508 -15.17854,1.41795 z m 10.71587,-8.35008 c 1.33759,-1.33759 2,-3.33333 2,-6.02568 l 0,-4.02568 -3.25,1.64627 c -4.5646,2.31217 -6.75,4.41999 -6.75,6.51039 0,1.81431 2.45109,3.80837 4.75,3.86429 0.6875,0.0167 2.15,-0.86959 3.25,-1.96959 z m -2.5567,-25.22251 c 1.80244,-2.57334 2.17811,-14.27541 0.49174,-15.31764 -0.58573,-0.362 -0.92323,-2.06922 -0.75,-3.79382 0.47566,-4.73549 -2.76115,-4.92479 -4.70391,-0.27511 -2.9787,7.12903 -1.29083,21.60908 2.51887,21.60908 0.48763,0 1.58711,-1.00013 2.4433,-2.22251 z M 106.03821,689.86128 C 94.307481,686.01943 88.790296,675.44517 93.422891,665.6827 c 2.789681,-5.87881 12.501459,-9.90517 14.064839,-5.83107 0.33469,0.87221 0.0725,3.98132 -0.58277,6.90915 -1.31878,5.89291 -0.12806,10.4959 3.52344,13.62072 4.13337,3.53717 12.24595,2.88681 14.40913,-1.15513 3.30686,-6.17894 -0.37943,-12.73393 -11.35114,-20.18468 -3.28841,-2.23312 -7.742,-5.65304 -9.89687,-7.59983 -16.238205,-14.67026 -5.42051,-35.96336 17.22741,-33.90972 6.49884,0.58929 13.27631,3.70033 15.51948,7.12384 6.06686,9.25919 2.45987,20.60983 -6.54937,20.60983 -4.4541,0 -5.17251,-1.24791 -4.31597,-7.49704 1.07409,-7.83633 -2.13165,-12.50296 -8.58891,-12.50296 -6.45207,0 -9.18335,7.21735 -4.97033,13.13399 1.15247,1.6185 5.98997,5.57557 10.75,8.79349 4.76002,3.21792 9.86822,7.13816 11.35154,8.71164 7.36917,7.81709 7.79397,20.89988 0.93246,28.71729 -4.8421,5.51667 -19.78875,8.22552 -28.90762,5.23906 z m 235.39969,-0.93492 c -0.2766,-1.05775 -0.0733,-7.15158 0.45191,-13.54186 0.52516,-6.39028 1.33023,-20.18325 1.78905,-30.65103 0.48745,-11.12088 1.32685,-19.95284 2.01933,-21.24674 1.62372,-3.03395 8.73002,-6.53517 11.73396,-5.78123 2.93972,0.73782 2.9949,2.47519 0.89118,28.06031 -0.81402,9.9 -1.48609,21.53998 -1.49348,25.86663 -0.0131,7.68033 0.0399,7.85174 2.23657,7.23765 1.2375,-0.34595 5.6594,-0.90911 9.82644,-1.25147 13.65216,-1.12166 17.86486,2.07656 12.67356,9.62155 l -2.25,3.27013 -18.6878,0.16961 c -17.67392,0.16041 -18.71508,0.0653 -19.19072,-1.75355 z m -155.7236,-8.91862 c -9.50674,-6.31773 -10.69028,-23.43156 -2.26537,-32.75693 4.05575,-4.48922 7.87517,-5.94788 14.86749,-5.67799 4.76446,0.1839 5.09422,0.38142 7,4.19299 1.57989,3.15977 2,6 2,13.52124 0,8.19311 -0.34873,10.19927 -2.5,14.38201 -4.2016,8.16921 -12.30254,10.85735 -19.10212,6.33868 z m 11.81226,-8.75079 c 2.87534,-5.68313 0.99352,-17.33039 -3.43719,-21.27401 -1.94919,-1.73491 -2.03959,-1.69472 -3.36024,1.4936 -2.0256,4.89023 -1.77237,16.82831 0.4282,20.18681 2.11885,3.23378 4.60786,3.07497 6.36923,-0.4064 z m 21.18774,8.75079 c -9.50674,-6.31773 -10.69028,-23.43156 -2.26537,-32.75693 4.05575,-4.48922 7.87517,-5.94788 14.86749,-5.67799 4.76446,0.1839 5.09422,0.38142 7,4.19299 1.57989,3.15977 2,6 2,13.52124 0,8.19311 -0.34873,10.19927 -2.5,14.38201 -4.2016,8.16921 -12.30254,10.85735 -19.10212,6.33868 z m 11.81226,-8.75079 c 2.87534,-5.68313 0.99352,-17.33039 -3.43719,-21.27401 -1.94919,-1.73491 -2.03959,-1.69472 -3.36024,1.4936 -2.0256,4.89023 -1.77237,16.82831 0.4282,20.18681 2.11885,3.23378 4.60786,3.07497 6.36923,-0.4064 z m 13.81835,9.88683 c -0.27882,-0.75789 -0.15609,-8.97264 0.27273,-18.25501 l 0.77967,-16.87704 2.95956,-2.39567 c 1.95121,-1.57944 3.98167,-2.30275 5.95955,-2.12296 2.79721,0.25428 2.98512,0.52626 2.7798,4.02356 l -0.22019,3.75085 3.04658,-3.46987 c 4.16024,-4.73824 9.45184,-5.79128 12.18989,-2.4258 1.78776,2.19742 1.89262,3.42024 1.27727,14.89397 -0.54148,10.09632 -0.39343,12.87733 0.76992,14.46225 1.15978,1.58007 1.72458,1.72633 2.89987,0.75093 1.05759,-0.87773 1.61775,-4.42334 2.03396,-12.87433 0.61964,-12.5816 1.65287,-15.27022 7.04386,-18.32934 2.34468,-1.33048 2.79568,-1.32144 4.20137,0.0842 1.33754,1.33754 1.41793,2.54112 0.53376,7.99049 -1.55564,9.58768 -1.34687,20.1572 0.44391,22.47462 1.48262,1.91864 1.51811,1.91796 3.06286,-0.0589 1.11143,-1.42231 1.39111,-3.17065 0.96828,-6.05289 -2.42281,-16.51507 13.07344,-31.99637 22.54578,-22.52403 2.3508,2.3508 2.92308,3.7902 2.92308,7.35212 0,6.58893 -3.22193,10.78395 -12.46556,16.23043 -1.57815,0.92987 -1.5441,1.21238 0.452,3.75 2.92951,3.72428 8.63532,3.84034 12.01356,0.24437 3.15104,-3.35413 5,-3.2021 5,0.41111 0,5.55632 -9.9126,11.07828 -17.3741,9.67849 -1.96187,-0.36805 -4.89744,-1.78865 -6.52351,-3.15689 l -2.95647,-2.48771 -2.48684,2.48683 c -4.16363,4.16363 -10.47523,4.60917 -14.0898,0.9946 -1.42743,-1.42743 -1.81065,-1.38172 -4.20478,0.5015 -3.35865,2.64191 -8.36032,2.6498 -11.70554,0.0185 -3.67385,-2.88986 -4.88811,-8.30895 -3.83587,-17.11916 1.0036,-8.40301 0.57975,-11.04751 -1.70238,-10.62161 -2.27725,0.42497 -4.93209,9.09385 -5.73559,18.72842 -0.3753,4.5002 -1.23176,8.52372 -1.93939,9.11101 -2.18525,1.8136 -8.34479,2.38894 -8.91724,0.83293 z m 65.85671,-21.75815 c 3.41937,-3.56905 3.49158,-9.61982 0.1148,-9.61982 -2.17297,0 -4.34108,4.75725 -4.44356,9.75 -0.0717,3.49489 0.88324,3.46617 4.32876,-0.13018 z m 78.73167,21.24949 c -4.87982,-3.41796 -6.26652,-12.57637 -4.14405,-27.36931 0.77432,-5.39672 1.4637,-6.97676 4.06154,-9.30885 1.86712,-1.67613 4.00336,-2.6843 5.29728,-2.5 1.89465,0.26986 2.14225,0.87689 1.96155,4.80885 -1.24522,27.09539 -0.53311,31.47025 4.17067,25.62252 1.42232,-1.76824 2.78407,-2.58732 3.53249,-2.12478 0.89589,0.5537 1.01729,0.12469 0.45912,-1.62251 -2.26021,-7.07498 -3.43302,-12.88272 -3.4436,-17.05265 -0.01,-3.84585 0.44725,-5.03857 2.57059,-6.70879 3.24263,-2.55064 6.35999,-3.57134 7.48167,-2.44966 0.47454,0.47454 1.12525,3.55674 1.44602,6.84933 0.70268,7.21274 3.42092,18.48654 4.4573,18.48654 0.40994,0 1.0285,-3.04652 1.37456,-6.77004 0.76615,-8.24352 3.05009,-16.25766 5.49301,-19.27454 1.50896,-1.86349 2.42171,-2.12984 5.39029,-1.57293 6.41394,1.20326 6.55655,2.51648 1.39684,12.86295 -2.53835,5.09001 -5.69066,13.07956 -7.00514,17.75456 -1.96236,6.9792 -2.9023,8.81216 -5.25349,10.24473 -1.57494,0.95961 -3.6482,1.74711 -4.60725,1.75 -1.93532,0.006 -7.74376,-7.38312 -7.77823,-9.89477 -0.0121,-0.87998 -0.86338,0.25292 -1.89179,2.51754 -1.0284,2.26462 -2.91865,4.85212 -4.20054,5.75 -2.98137,2.08823 -7.7889,2.08904 -10.76884,0.002 z M 283.8516,635.33155 c -0.56935,-1.06384 -1.03518,-3.3343 -1.03518,-5.04545 0,-6.05493 7.55781,-10.31962 11.42857,-6.44886 1.93949,1.93949 1.97112,3.53622 0.15609,7.8802 -2.24831,5.38095 -8.46422,7.51044 -10.54948,3.61411 z m 105.52152,-0.28825 c -3.30815,-4.72305 -0.89157,-10.90239 4.82472,-12.33708 5.71753,-1.43501 8.29985,3.40769 5.10823,9.57961 -2.66559,5.15468 -7.34416,6.45349 -9.93295,2.75747 z m 49.47848,0.28825 c -0.56935,-1.06384 -1.03518,-3.3343 -1.03518,-5.04545 0,-6.05493 7.55781,-10.31962 11.42857,-6.44886 1.93949,1.93949 1.97112,3.53622 0.15609,7.8802 -2.24831,5.38095 -8.46422,7.51044 -10.54948,3.61411 z"
       id="path4242"
       inkscape:connector-curvature="0" />
  </g>
</svg>
